<?xml version="1.0" encoding="utf-8"?>
<svg version="1.1" viewBox="0 0 1600 440" width="1280" height="1280" xmlns="http://www.w3.org/2000/svg">
  <path transform="translate(47.9 44.9)" d="m0 0c1.08-0.0025 2.15-0.00501 3.26-0.00759 1.2 0.00234 2.4 0.00468 3.64 0.00709 1.27-0.00145 2.53-0.00291 3.84-0.0044 3.55-0.00393 7.1-0.00155 10.6 0.00178 3.85 0.00252 7.7-7.17e-4 11.5-0.00324 6.76-0.00362 13.5-0.00349 20.3-9.53e-4 10 0.00377 20.1 0.00186 30.1-0.00121 17.9-0.00528 35.9-0.0048 53.8-0.00192 15.7 0.00251 31.4 0.00317 47.1 0.00198 1.56-1.15e-4 1.56-1.15e-4 3.15-2.31e-4 4.22-3.11e-4 8.44-6.3e-4 12.7-9.6e-4 39.6-0.00306 79.2-2.81e-4 119 0.0051 35.2 0.00475 70.4 0.00432 106-4.61e-4 39.5-0.00535 79.1-0.00748 119-0.00439 4.21 3.21e-4 8.42 6.34e-4 12.6 9.43e-4 1.04 7.91e-5 2.07 1.58e-4 3.14 2.4e-4 15.7 0.00114 31.4-1.96e-4 47.1-0.00272 17.8-0.00285 35.7-0.00216 53.5 0.00328 9.99 0.00295 20 0.00311 30-6.46e-4 6.66-0.00223 13.3-8.66e-4 20 0.0035 3.8 0.00239 7.61 0.00316 11.4-4.06e-4 4.08-0.00379 8.17 3.99e-5 12.3 0.00472 1.2-0.00234 2.4-0.00468 3.63-0.00709 1.62 0.00376 1.62 0.00376 3.27 0.00759 0.935 6.78e-5 1.87 1.36e-4 2.83 2.05e-4 2.22 0.125 2.22 0.125 4.22 1.13 0.0229 44.8 0.0405 89.7 0.0511 134 0.00125 5.29 0.00255 10.6 0.00387 15.9 2.62e-4 1.05 5.25e-4 2.1 7.95e-4 3.19 0.00436 17.1 0.0122 34.1 0.0214 51.2 0.00934 17.5 0.0149 35 0.0169 52.5 0.00138 10.8 0.00573 21.6 0.0138 32.4 0.00527 7.4 0.00689 14.8 0.00558 22.2-6.44e-4 4.28 3.77e-4 8.55 0.0057 12.8 0.00483 3.91 0.00513 7.82 0.00169 11.7-4.26e-4 1.42 8.7e-4 2.84 0.00398 4.26 0.00396 1.92 0.00127 3.84-0.00184 5.75 5.7e-4 1.6 5.7e-4 1.6 0.00115 3.24-0.124 2.38-0.124 2.38-1.12 3.38-1.65 0.0976-3.3 0.124-4.95 0.124-1.08 0.00225-2.16 0.00449-3.27 0.00681-1.2-0.00263-2.41-0.00525-3.65-0.00796-1.27 0.00115-2.54 0.00231-3.85 0.0035-3.56 0.00309-7.12-1.23e-4 -10.7-0.00428-3.86-0.00342-7.72-0.00107-11.6 5.77e-4 -6.78 0.00208-13.6 4.2e-4 -20.3-0.00364-10.1-0.00602-20.2-0.00634-30.2-0.00546-16.9 0.00132-33.9-0.00204-50.8-0.00802-16.8-0.00591-33.6-0.00976-50.4-0.0109-1.04-6.87e-5 -2.08-1.37e-4 -3.16-2.08e-4 -5.29-3.38e-4 -10.6-6.4e-4 -15.9-9.27e-4 -37.5-0.0021-75.1-0.00885-113-0.0183-36.5-0.00918-72.9-0.0163-109-0.0205-1.12-1.32e-4 -2.25-2.63e-4 -3.4-3.99e-4 -11.3-0.00132-22.6-0.00259-33.8-0.00384-23-0.00254-46-0.00536-68.9-0.00835-1.06-1.37e-4 -2.11-2.75e-4 -3.2-4.16e-4 -70.6-0.00921-141-0.0251-212-0.0419-1.05-3.16-1.13-5.38-1.13-8.71-0.00261-1.2-0.00522-2.39-0.0079-3.63 0.00216-1.33 0.00442-2.67 0.00676-4-0.00115-1.41-0.00274-2.82-0.00473-4.24-0.00419-3.89-0.0021-7.78 9.86e-4 -11.7 0.00226-4.19-0.00123-8.38-0.00398-12.6-0.00446-8.22-0.00348-16.4-5.87e-4 -24.7 0.00226-6.68 0.00257-13.4 0.00148-20-1.53e-4 -0.95-3.06e-4 -1.9-4.64e-4 -2.88-3.2e-4 -1.93-6.44e-4 -3.86-9.73e-4 -5.79-0.00285-18.1 4.31e-4 -36.2 0.0058-54.3 0.00447-15.5 0.00369-31.1-9.19e-4 -46.6-0.00535-18-0.00746-36.1-0.00439-54.1 3.19e-4 -1.92 6.33e-4 -3.85 9.43e-4 -5.77 1.54e-4 -0.946 3.09e-4 -1.89 4.68e-4 -2.87 8.64e-4 -6.67-5.94e-4 -13.3-0.00295-20-0.0028-8.13-0.00205-16.3 0.00328-24.4 0.00263-4.15 0.00366-8.3 3.51e-4 -12.4-0.00298-3.8-0.00134-7.6 0.00398-11.4 0.00164-2.02-0.00162-4.05-0.00506-6.07 0.0389-18 0.0389-18 7.06-18zm537 114c-0.762 1.94-0.762 1.94-1.14 4.25-0.18 0.9-0.359 1.8-0.544 2.73-0.186 0.997-0.373 1.99-0.565 3.02-0.434 2.2-0.869 4.4-1.3 6.61-0.348 1.79-0.348 1.79-0.702 3.61-0.768 3.91-1.57 7.81-2.38 11.7-0.141 0.679-0.282 1.36-0.428 2.06-0.291 1.4-0.581 2.8-0.872 4.2-2.95 14.2-5.81 28.4-8.64 42.6-0.283 1.43-0.567 2.86-0.85 4.28-0.204 1.03-0.204 1.03-0.412 2.08-0.818 4.11-1.66 8.2-2.53 12.3-0.294 1.4-0.294 1.4-0.593 2.83-0.347 1.65-0.702 3.29-1.07 4.94-0.83 3.97-0.898 6.84 0.0222 10.8 8.6 0.0232 17.2 0.041 25.8 0.0518 3.99 0.0052 7.99 0.0123 12 0.0236 3.86 0.0109 7.72 0.0169 11.6 0.0194 1.47 0.00184 2.93 0.00543 4.4 0.0109 7.15 0.0254 14.2 0.0455 21.3-1.11 0.361-1.98 0.714-3.96 1.06-5.94 0.197-1.1 0.394-2.2 0.598-3.34l0.34-2.72c-1.76-1.76-4.28-1.23-6.68-1.32-1.81-0.063-1.81-0.063-3.66-0.127-1.31-0.0392-2.62-0.0785-3.98-0.119-0.663-0.0212-1.33-0.0424-2.01-0.0642-14.2-0.452-28.4-0.481-42.7-0.373 0.817-3.82 1.64-7.65 2.45-11.5 0.413-1.93 0.825-3.86 1.24-5.79 0.527-2.46 1.06-4.92 1.58-7.38 0.448-2.08 0.892-4.16 1.33-6.25 1.28-6.01 1.28-6.01 2.39-7.12 1.59-0.0777 3.18-0.0858 4.76-0.0659 1.52 0.0146 1.52 0.0146 3.07 0.0296 1.66 0.0219 1.66 0.0219 3.35 0.0442 2.31 0.0175 4.62 0.0344 6.94 0.0508 3.67 0.031 7.33 0.0666 11 0.113 3.52 0.0422 7.05 0.0657 10.6 0.0864 1.1 0.0186 2.2 0.0372 3.34 0.0564 1.02 0.00345 2.04 0.00691 3.08 0.0105 0.899 0.00968 1.8 0.0194 2.72 0.0293 0.716-0.117 1.43-0.234 2.17-0.354 2.08-3.11 2.55-4.99 3.19-8.62l0.543-2.98 0.27-2.4c-3.09-3.09-11.8-2.07-16-2.11-1.72 1.55e-4 -3.45 0.0056-5.17 0.0159-1.38 0.00212-1.38 0.00212-2.78 0.00429-2.89 0.00554-5.79 0.0181-8.68 0.0309-1.98 0.00502-3.96 0.00958-5.93 0.0137-4.81 0.0109-9.63 0.0282-14.4 0.0488 0.191-0.815 0.382-1.63 0.579-2.47 1.64-7.03 3.2-14.1 4.61-21.2l0.537-2.64c0.167-0.834 0.334-1.67 0.506-2.53 0.148-0.739 0.297-1.48 0.45-2.24 0.4-2.13 0.4-2.13 0.32-4.97h57c1.52-3.81 2.28-5.95 2.62-9.81 0.0748-0.79 0.15-1.58 0.227-2.39 0.0735-0.888 0.0735-0.888 0.148-1.79-9.21-0.177-18.4-0.343-27.6-0.495-4.27-0.0709-8.55-0.146-12.8-0.229-4.12-0.0802-8.25-0.151-12.4-0.214-1.57-0.026-3.15-0.0555-4.72-0.0887-2.2-0.0458-4.41-0.0789-6.61-0.109-1.25-0.0222-2.51-0.0444-3.8-0.0673-3.23-0.0409-3.23-0.0409-6.06 2.2zm-374 0c-0.408 1.76-0.761 3.52-1.09 5.3-0.221 1.16-0.442 2.33-0.669 3.52l-0.737 3.93c-0.542 2.85-1.09 5.7-1.63 8.55-0.147 0.766-0.293 1.53-0.444 2.32-1.88 9.8-3.84 19.6-5.8 29.4-0.189 0.944-0.378 1.89-0.572 2.86-2.11 10.5-4.24 21.1-6.41 31.6-0.281 1.37-0.281 1.37-0.568 2.76-0.893 4.33-1.79 8.67-2.69 13-0.318 1.54-0.636 3.07-0.954 4.61-0.146 0.7-0.293 1.4-0.444 2.12-0.739 3.48-0.739 3.48-0.99 7.02 44.1 4.28 44.1 4.28 83.8-10.9 7.43-6.8 11.3-15 12.6-25 0.299-7.29-1.17-14.3-5.99-20-1.43-1.4-2.91-2.76-4.4-4.11v-2c0.825-0.495 1.65-0.99 2.5-1.5 7.06-4.53 12.1-11.8 14.1-19.9 1.33-8.58 1.19-17.3-4.01-24.5-5.74-6.37-13.3-8.95-21.6-10-4.05-0.147-8.09-0.14-12.1-0.133-1.17-9.57e-4 -2.33-0.00191-3.53-0.0029-2.46-6.79e-4 -4.91 0.00116-7.37 0.00534-3.77 0.00538-7.55 3.28e-5 -11.3-0.00635-2.38 6.6e-4 -4.77 0.00194-7.15 0.00391-1.7-0.00304-1.7-0.00304-3.44-0.00613-1.56 0.00473-1.56 0.00473-3.16 0.00955-1.38 0.00119-1.38 0.00119-2.79 0.00241-2.08-0.106-2.08-0.106-3.09 1.13zm115-1c4.31 11.5 8.63 23.1 13 34.6 0.319 0.84 0.637 1.68 0.965 2.54 1.78 4.67 3.6 9.32 5.46 14 0.407 1.02 0.815 2.04 1.23 3.09 0.782 1.95 1.57 3.9 2.37 5.85 1.06 2.64 2.04 5.3 2.97 7.99 0.27 0.756 0.54 1.51 0.819 2.29 2.37 8.41-0.27 16.7-2.19 25-0.519 2.3-1.03 4.59-1.54 6.89-0.315 1.42-0.637 2.84-0.968 4.25-0.892 3.94-1.28 7.57-1.12 11.6 2.29 0.194 4.58 0.38 6.88 0.562 1.28 0.104 2.55 0.209 3.87 0.316 3.14 0.378 3.14 0.378 5.26-0.879 0.803-2.72 0.803-2.72 1.4-6.05l0.76-3.8c0.259-1.34 0.517-2.68 0.775-4.02 5.79-29.6 5.79-29.6 15.2-40 2.5-2.87 4.83-5.87 7.17-8.88 3.37-4.31 6.77-8.59 10.2-12.8 3.61-4.39 7.11-8.86 10.6-13.4 3.16-4.13 6.35-8.22 9.56-12.3 0.46-0.585 0.92-1.17 1.39-1.77 2.05-2.61 4.11-5.22 6.17-7.83 0.959-1.22 0.959-1.22 1.94-2.46 0.55-0.697 1.1-1.39 1.67-2.11 1.24-1.38 1.24-1.38 1.14-2.57-11.4-1.51-11.4-1.51-21.9 1.96-2.3 2.89-4.2 5.89-6.12 9.04-1.75 2.34-3.6 4.6-5.44 6.88-2.8 3.55-5.57 7.13-8.31 10.7-0.442 0.581-0.884 1.16-1.34 1.76-1.21 1.6-2.42 3.19-3.62 4.79-2.27 2.82-4.72 5.29-7.29 7.84-1.38 1.67-2.73 3.35-4.06 5.06-2.48 3.19-5.02 6.13-7.94 8.94l-1.32-3.41c-0.601-1.55-1.2-3.1-1.8-4.65-0.318-0.821-0.637-1.64-0.965-2.49-1.94-4.98-3.91-9.94-5.91-14.9-3.26-8.1-6.25-16.3-9.23-24.5-0.886-2.37-1.83-4.72-2.77-7.07h-17zm127 0c-3.35 7.51-3.35 7.51-3 14l39 1c-3.19 16.9-6.55 33.7-10 50.6-0.441 2.16-0.882 4.31-1.32 6.47-0.642 3.14-1.28 6.28-1.93 9.41-1.63 7.98-3.26 16-4.88 23.9-0.2 0.978-0.4 1.96-0.605 2.96-0.261 1.3-0.261 1.3-0.527 2.62-0.146 0.72-0.292 1.44-0.442 2.18-0.38 2.04-0.38 2.04-0.3 4.86 2.27 0.195 4.54 0.381 6.81 0.562 1.26 0.104 2.53 0.209 3.83 0.316 3.35 0.317 3.35 0.317 6.36-0.879 0.11-0.589 0.219-1.18 0.332-1.78 2.83-15.1 5.91-30.2 9.12-45.3 2.75-12.9 5.3-25.9 7.64-38.9 0.223-1.23 0.446-2.45 0.676-3.71 0.19-1.06 0.38-2.12 0.576-3.22 0.711-3.42 1.69-6.77 2.65-10.1 13.2-0.33 26.4-0.66 40-1 2.24-7.6 2.24-7.6 2-14h-96z" style=""/>
  <path transform="translate(0,5)" d="m0 0h1595v435h-1595v-435zm10 13c-1.15 3.44-1.12 6.06-1.11 9.69 2.35e-4 0.687 4.7e-4 1.37 7.12e-4 2.08 0.00204 2.32 0.0113 4.64 0.0205 6.96 0.00298 1.67 0.00551 3.34 0.00765 5.02 0.00718 4.61 0.0207 9.22 0.0352 13.8 0.0146 4.97 0.0233 9.93 0.0328 14.9 0.0196 9.73 0.0446 19.5 0.0716 29.2 0.0218 7.91 0.0417 15.8 0.0601 23.7 0.00262 1.12 0.00524 2.25 0.00795 3.4 0.00532 2.28 0.0106 4.56 0.0159 6.85 0.05 21.4 0.106 42.8 0.165 64.2 0.05 18.4 0.0947 36.8 0.136 55.2 0.0474 21.3 0.098 42.7 0.154 64 0.00594 2.27 0.0119 4.55 0.0178 6.82 0.00292 1.12 0.00584 2.24 0.00884 3.39 0.0204 7.9 0.0385 15.8 0.0557 23.7 0.021 9.62 0.0455 19.2 0.0746 28.9 0.0148 4.91 0.0279 9.83 0.0368 14.7 0.00815 4.49 0.0208 8.98 0.0373 13.5 0.00516 1.63 0.0086 3.26 0.0102 4.9 0.00245 2.2 0.0109 4.41 0.0211 6.61 0.0032 1.23 0.0064 2.46 0.0097 3.72-0.177 2.63-0.177 2.63 1.13 3.72 1.42 0.0973 2.84 0.125 4.25 0.125 1.39 0.00369 1.39 0.00369 2.81 0.00745 1.55-0.00359 1.55-0.00359 3.13-0.00724 1.09 0.0014 2.18 0.0028 3.31 0.00425 3.71 0.00352 7.43-1.79e-4 11.1-0.00376 2.68 0.00104 5.36 0.00248 8.03 0.0044 5.87 0.00341 11.7 0.00305 17.6 3.16e-4 8.79-0.00408 17.6-0.00242 26.4 3.83e-4 15 0.00461 29.9 0.00444 44.9 0.00172 15.2-0.00275 30.4-0.00334 45.6-0.00126 0.957 1.29e-4 1.91 2.58e-4 2.9 3.91e-4 3.9 5.33e-4 7.8 0.00108 11.7 0.00165 36.4 0.0053 72.7 0.00565 109 0.00285 1.62-1.24e-4 1.62-1.24e-4 3.27-2.51e-4 1.62-1.24e-4 1.62-1.24e-4 3.27-2.51e-4 32.9-0.00252 65.7-0.00318 98.6-0.00198 2.2 7.75e-5 4.4 1.55e-4 6.59 2.31e-4 8.83 3.1e-4 17.7 6.29e-4 26.5 9.6e-4 24.7 9.17e-4 49.4 0.00149 74.1 0.00179 1.12 1.36e-5 2.25 2.73e-5 3.41 4.14e-5 35.9 4.09e-4 71.7-7.19e-4 108-0.00289 1.16-7.02e-5 2.33-1.4e-4 3.53-2.13e-4 18.9-0.00115 37.8-0.00236 56.7-0.00359 74.9-0.00486 150-0.00463 225 2.31e-4 18.9 0.00122 37.8 0.00243 56.7 0.00357 1.74 1.06e-4 1.74 1.06e-4 3.52 2.13e-4 35.8 0.00216 71.6 0.00307 107 0.00264 1.12-1.36e-5 2.25-2.72e-5 3.41-4.12e-5 24.7-3.12e-4 49.3-9.46e-4 74-0.00187 8.83-3.29e-4 17.7-6.42e-4 26.5-9.51e-4 2.2-7.74e-5 4.39-1.56e-4 6.59-2.36e-4 32.9-0.0012 65.7-1.74e-4 98.6 0.00235 1.08 8.28e-5 2.16 1.66e-4 3.27 2.51e-4 1.08 8.27e-5 2.15 1.65e-4 3.26 2.51e-4 36.3 0.00275 72.5 0.00175 109-0.00353 3.89-5.52e-4 7.78-0.00109 11.7-0.00161 0.954-1.3e-4 1.91-2.6e-4 2.89-3.95e-4 15.1-0.00198 30.3-5.94e-4 45.4 0.00216 14.9 0.00264 29.7 0.00173 44.6-0.00301 8.73-0.00268 17.5-0.00259 26.2 0.00148 5.79 0.00243 11.6 0.00129 17.4-0.00287 3.29-0.00226 6.58-0.00236 9.87 8.17e-4 3.52 0.00316 7.04 2.82e-4 10.6-0.00424 1.03 0.00239 2.06 0.00478 3.12 0.00724 0.929-0.00246 1.86-0.00492 2.81-0.00745 0.804-2.8e-5 1.61-5.59e-5 2.44-8.47e-5 2.03-0.00382 2.03-0.00382 3.94-1.13 0.0229-52 0.0405-104 0.0511-156 0.00125-6.13 0.00255-12.3 0.00387-18.4 2.62e-4 -1.22 5.25e-4 -2.44 7.95e-4 -3.7 0.00436-19.8 0.0122-39.6 0.0214-59.3 0.00934-20.3 0.0149-40.6 0.0169-60.8 0.00138-12.5 0.00573-25 0.0138-37.6 0.00527-8.58 0.00689-17.2 0.00558-25.7-6.44e-4 -4.96 3.77e-4 -9.91 0.0057-14.9 0.00483-4.53 0.00513-9.06 0.00169-13.6-4.26e-4 -1.65 8.71e-4 -3.29 0.00398-4.94 0.00396-2.22 0.00188-4.44-0.00184-6.67 3.8e-4 -1.24 7.59e-4 -2.48 0.00115-3.75 0.188-2.65 0.188-2.65-1.12-3.74-1.36-0.0971-2.72-0.125-4.08-0.125-0.888-0.00246-1.78-0.00492-2.69-0.00745-0.99 0.00239-1.98 0.00478-3 0.00724-1.57-0.0021-1.57-0.0021-3.17-0.00425-3.56-0.00352-7.12 1.78e-4 -10.7 0.00376-2.57-0.00104-5.14-0.00252-7.7-0.0044-5.63-0.00341-11.3-0.00305-16.9-3.16e-4 -8.43 0.00408-16.9 0.00242-25.3-3.83e-4 -14.4-0.00461-28.7-0.00444-43.1-0.00172-14.6 0.00275-29.1 0.00334-43.7 0.00126-0.918-1.29e-4 -1.84-2.58e-4 -2.78-3.91e-4 -3.74-5.33e-4 -7.48-0.00108-11.2-0.00165-34.9-0.0053-69.8-0.00564-105-0.00285-1.55 1.24e-4 -1.55 1.24e-4 -3.14 2.51e-4 -1.04 8.29e-5 -2.07 1.66e-4 -3.14 2.51e-4 -31.6 0.00252-63.1 0.00318-94.7 0.00198-2.11-7.75e-5 -4.23-1.55e-4 -6.34-2.31e-4 -8.49-3.1e-4 -17-6.29e-4 -25.5-9.6e-4 -23.7-9.17e-4 -47.5-0.00149-71.2-0.00179-1.08-1.36e-5 -2.16-2.73e-5 -3.28-4.14e-5 -34.5-4.1e-4 -69 7.19e-4 -103 0.00289-1.12 7.02e-5 -2.24 1.4e-4 -3.39 2.13e-4 -18.2 0.00114-36.4 0.00236-54.5 0.00359-71.9 0.00485-144 0.00464-216-2.31e-4 -18.1-0.00122-36.2-0.00243-54.3-0.00357-1.11-7.04e-5 -2.23-1.41e-4 -3.38-2.13e-4 -34.4-0.00216-68.8-0.00307-103-0.00264-1.62 2.04e-5 -1.62 2.04e-5 -3.28 4.12e-5 -23.8 3.13e-4 -47.5 9.47e-4 -71.3 0.00187-8.5 3.29e-4 -17 6.42e-4 -25.5 9.51e-4 -2.11 7.74e-5 -4.23 1.56e-4 -6.34 2.36e-4 -31.5 0.00119-63 1.84e-4 -94.6-0.00235-1.03-8.28e-5 -2.06-1.66e-4 -3.12-2.51e-4 -1.03-8.27e-5 -2.06-1.65e-4 -3.12-2.51e-4 -34.8-0.00277-69.7-0.00172-105 0.00353-3.76 5.52e-4 -7.52 0.00109-11.3 0.00161-1.38 1.95e-4 -1.38 1.95e-4 -2.79 3.95e-4 -14.5 0.00196-29 6.15e-4 -43.5-0.00216-14.3-0.00267-28.6-0.00167-43 0.00301-7.63 0.0024-15.3 0.00336-22.9-4.06e-4 -37.5-0.0175-75 0.326-113 1.13z" style=""/>
  <path transform="translate(1145 158)" d="m0 0c1.16-0.00961 2.31-0.0192 3.5-0.0291 1.26-0.00425 2.53-0.0085 3.83-0.0129 1.3-0.0057 2.59-0.0114 3.93-0.0173 2.76-0.0105 5.52-0.0164 8.28-0.0198 3.5-0.00542 6.99-0.0293 10.5-0.058 3.37-0.0234 6.74-0.0251 10.1-0.0299 1.24-0.0123 2.47-0.0247 3.75-0.0374 17.5 0.044 35.1 4.47 48.2 16.7 4.77 5.1 8.67 10.2 11.5 16.6 0.465 1.04 0.931 2.09 1.41 3.16 5.9 15.1 5.53 31.8-0.41 46.8-0.509 1.33-0.509 1.33-1.03 2.69-6.05 13.8-17.9 22.6-31.5 28.1-10.5 4.06-21.3 4.56-32.5 4.81-1.4 0.0374-2.8 0.075-4.2 0.113-9.41 0.241-18.8 0.36-28.2 0.387-1.15 0.00467-2.31 0.00935-3.5 0.0142-1.05-0.00209-2.1-0.00419-3.19-0.00635-0.922-0.00113-1.84-0.00226-2.79-0.00342-2.08-0.129-2.08-0.129-3.08-1.13-0.245-2.88-0.424-5.73-0.554-8.62-0.0421-0.894-0.0842-1.79-0.128-2.71-0.458-10.6-0.463-21.2-0.451-31.8-6.76e-4 -2.14-0.00165-4.29-0.0029-6.43-0.00146-4.44 6.23e-4 -8.89 0.00534-13.3 0.00576-5.71 0.00237-11.4-0.00357-17.1-0.0036-4.4-0.00247-8.81 1.28e-4 -13.2 6.68e-4 -2.11-1.54e-4 -4.21-0.00248-6.32-0.00252-2.92 0.0013-5.84 0.0069-8.76-0.00202-0.872-0.00405-1.74-0.00613-2.64 0.0257-7.18 0.0257-7.18 6.53-7.22zm27.6 31.2v56c8.33 4.16 22.8 0.558 31-2 6.07-2.21 9.94-6.23 13-11.8 3.39-8.02 4.04-17 0.992-25.2-0.223-0.668-0.446-1.34-0.676-2.02-2.55-6.3-7.32-10-13.3-13-6.36-1.98-12.8-2.42-19.4-2.69-0.897-0.0471-1.79-0.0941-2.72-0.143-4.57-0.396-4.57-0.396-8.85 0.83z" style=""/>
  <path transform="translate(897 157)" d="m0 0c0.816 0.00196 1.63 0.00393 2.47 0.00595 0.844-0.0015 1.69-3e-3 2.56-0.00455 2.76-0.00237 5.52 0.00392 8.28 0.0124 0.935 0.00222 1.87 0.00443 2.83 0.00671 6.37 0.0178 12.7 0.0588 19.1 0.118 1.05 0.00937 1.05 0.00937 2.13 0.0189 34.7 0.345 34.7 0.345 45.9 11 6.5 7.96 8.58 14.8 8.45 25.1-0.807 7.09-3.56 13.5-9.03 18.2-0.798 0.592-1.6 1.18-2.42 1.79-0.99 0.99-0.99 0.99-2 2v2c0.74 0.244 1.48 0.487 2.24 0.738 5.66 2.59 10.2 8.36 12.7 14 2.88 8.82 2.75 16.7-0.938 25.2-5.77 9.72-14 15-24.7 18.2-8.62 1.97-17.7 1.56-26.5 1.63-3.45 0.0284-6.91 0.0836-10.4 0.144-2.25 0.0322-4.5 0.0628-6.76 0.0918-1.51 0.0217-1.51 0.0217-3.04 0.0439-9.24 0.0665-18.4-0.488-27.6-1.06-0.0233-15.4-0.041-30.7-0.0518-46.1-0.00516-7.14-0.0122-14.3-0.0236-21.4-0.011-6.88-0.0168-13.8-0.0194-20.6-0.00185-2.63-0.00548-5.26-0.0109-7.89-0.00721-3.67-0.00826-7.34-0.0078-11-0.0036-1.1-0.00719-2.2-0.0109-3.33 0.00206-1.49 0.00206-1.49 0.00417-3.01-9.22e-4 -0.869-0.00184-1.74-0.00279-2.63 0.265-4.23 3.35-3.09 6.87-3.1zm26.2 26.1c-0.195 2.75-0.381 5.5-0.562 8.25-0.0561 0.777-0.112 1.55-0.17 2.36-0.0483 0.754-0.0967 1.51-0.146 2.29-0.0471 0.691-0.0943 1.38-0.143 2.09 0.0232 2.15 0.422 3.96 1.02 6.01 5.45 0.945 10.6 1.11 16.1 0.875 0.785-0.0103 1.57-0.0206 2.38-0.0312 4.35-0.191 6.03-0.453 9.49-3.34 0.994-1.24 0.994-1.24 2.01-2.51 0.33-0.33 0.66-0.66 1-1 0.442-3.05 0.467-5.95 0-9-2.67-3.57-4.67-5.23-9-6-1.73-0.0795-3.47-0.108-5.2-0.0977-0.98 0.00322-1.96 0.00645-2.97 0.00977-1.02 0.00838-2.03 0.0168-3.08 0.0254-1.03 0.00451-2.06 0.00902-3.12 0.0137-2.54 0.0118-5.08 0.0282-7.62 0.0488zm0 46c-0.0869 1.56-0.107 3.13-0.0977 4.69 0.00322 0.944 0.00645 1.89 0.00977 2.86 0.00838 0.993 0.0168 1.99 0.0254 3.01 0.00451 0.997 0.00902 1.99 0.0137 3.02 0.0118 2.47 0.0283 4.94 0.0488 7.42 3.82 1.91 8.48 1.23 12.7 1.25 0.982 0.0206 1.96 0.0412 2.97 0.0625 5.91 0.0317 10.1-0.412 15.3-3.31 2.75-2.5 2.75-2.5 4-6-0.0656-4.73-1.1-8.02-4.31-11.5-4.21-2.35-8.19-2.63-13-2.63-0.972-0.00129-1.94-0.00258-2.95-0.00391-1.5 0.0058-1.5 0.0058-3.04 0.0117-1.53-0.0058-1.53-0.0058-3.09-0.0117-1.45 0.00193-1.45 0.00193-2.93 0.00391-1.33 0.00169-1.33 0.00169-2.68 0.00342-2.05-0.0983-2.05-0.0983-3.05 1.13z" style=""/>
  <path transform="translate(1315,157)" d="m0 0c1.18 0.0189 1.18 0.0189 2.39 0.0381 22.3 0.427 41.6 4.43 57.7 21 11.8 13.7 13.9 30.6 13.1 48.1-1.35 16.5-11.2 29-23.2 39.5-3.62 2.44-7.63 3.99-11.7 5.56-0.635 0.25-1.27 0.5-1.92 0.758-13.2 4.84-27 4.46-40.8 4.68-2 0.0383-4.01 0.0773-6.01 0.117-5.52 0.106-11 0.188-16.6 0.258-1.1 0.0154-1.1 0.0154-2.23 0.0311-1.87 0.0243-3.75 0.04-5.62 0.0548-0.991 0.00822-1.98 0.0164-3 0.0249-2.15-0.111-2.15-0.111-3.15-1.11-0.0958-1.53-0.122-3.07-0.12-4.6-0.00137-0.994-0.00275-1.99-0.00417-3.01 0.0036-1.1 0.00719-2.2 0.0109-3.33-1.46e-4 -1.15-2.92e-4 -2.3-4.43e-4 -3.49 7e-4 -3.83 0.00849-7.65 0.0163-11.5 0.00186-2.64 0.00329-5.29 0.00429-7.93 0.00311-6.26 0.0113-12.5 0.0213-18.8 0.0112-7.13 0.0167-14.3 0.0217-21.4 0.0105-14.7 0.0281-29.3 0.0503-44 3.82-0.166 7.64-0.329 11.5-0.492 1.07-0.0466 2.14-0.0933 3.25-0.141 8.77-0.372 17.5-0.554 26.3-0.366zm-8 32c-0.0506 7.8-0.0857 15.6-0.11 23.4-0.0101 2.65-0.0237 5.31-0.041 7.96-0.0242 3.81-0.0356 7.62-0.0444 11.4-0.0103 1.19-0.0206 2.39-0.0313 3.61-1.51e-4 1.1-3.02e-4 2.2-4.58e-4 3.34-0.00444 0.973-0.00888 1.95-0.0135 2.95 0.0131 2.52 0.0131 2.52 2.24 4.33 2.49 0.231 4.82 0.332 7.31 0.312 0.713-0.00346 1.43-0.00693 2.16-0.0105 9-0.181 20.4-1.29 27.1-7.84 7.03-7.77 8.43-15.1 8.42-25.5-0.59-5.12-2.52-9.5-5-14h-2c-0.495-1.49-0.495-1.49-1-3-1.54-1.39-1.54-1.39-3.5-2.56-0.629-0.414-1.26-0.828-1.91-1.25-6.96-3.18-14.5-3.56-22-3.87-0.897-0.0471-1.79-0.0941-2.72-0.143-4.57-0.396-4.57-0.396-8.85 0.83z" style=""/>
  <path transform="translate(1114,159)" d="m0 0c0.194 51.9 0.194 51.9-0.312 67.5-0.0337 1.4-0.0337 1.4-0.0681 2.84-0.584 14.3-5.36 27.2-15.2 37.6-11.4 9.97-26.4 12.8-41.2 12.4-14.6-1.28-26.9-5.7-37-16.6-11.4-14-11.7-31.3-11.5-48.5 0.00562-1.63 0.00988-3.27 0.0129-4.9 0.0113-4.24 0.0406-8.48 0.0741-12.7 0.0365-5.12 0.0499-10.2 0.0674-15.4 0.0288-7.72 0.0864-15.4 0.139-23.2h34c0.0374 5.24 0.0748 10.5 0.113 15.9 0.0303 3.33 0.0615 6.66 0.0957 9.99 0.0542 5.28 0.105 10.6 0.137 15.8 0.0261 4.26 0.0666 8.52 0.117 12.8 0.0166 1.62 0.0282 3.24 0.0344 4.86-0.0234 12.1-0.0234 12.1 3.5 23.7 4.88 4.21 10.5 5.37 16.8 5.29 4.66-0.615 8.58-2.86 12-5.97 4.17-8.58 3.47-18.4 3.54-27.7 0.0187-1.58 0.0383-3.16 0.0587-4.74 0.051-4.13 0.0908-8.26 0.128-12.4 0.0402-4.22 0.0912-8.45 0.141-12.7 0.0964-8.27 0.181-16.5 0.258-24.8 4.2-0.193 8.4-0.371 12.6-0.537 1.43-0.0583 2.86-0.12 4.28-0.187 2.06-0.0945 4.11-0.175 6.17-0.253 1.85-0.0786 1.85-0.0786 3.75-0.159 3.07 0.13 4.65 0.501 7.21 2.14z" style=""/>
  <path transform="translate(1420 157)" d="m0 0c1.83-0.0184 1.83-0.0184 3.7-0.0371 1.17-0.00193 2.34-0.00387 3.54-0.00586 1.59-0.00616 1.59-0.00616 3.21-0.0125 2.68 0.243 2.68 0.243 5.68 2.24 1.27 2.18 1.27 2.18 2.52 4.88 0.464 0.986 0.928 1.97 1.41 2.99 0.477 1.04 0.954 2.07 1.45 3.14 0.944 2.02 1.89 4.04 2.84 6.06 0.462 0.991 0.924 1.98 1.4 3 1.71 3.62 3.5 7.2 5.32 10.8 1.49 3.01 2.79 6.07 4.07 9.17h3c0.235-0.807 0.469-1.61 0.711-2.45 1.59-4.38 3.7-8.34 5.91-12.4 4.64-8.63 8.99-17.4 13.4-26.1 12.5-0.33 25.1-0.66 38-1-0.862 4.31-1.69 6.65-3.73 10.4-0.834 1.53-0.834 1.53-1.69 3.1-0.585 1.06-1.17 2.12-1.77 3.21-0.565 1.04-1.13 2.08-1.71 3.15-3.1 5.66-6.3 11.2-9.64 16.7-4.12 6.85-8.01 13.8-12 20.8-1.4 2.44-2.82 4.87-4.25 7.3-0.415 0.714-0.831 1.43-1.26 2.16-0.765 1.31-1.54 2.62-2.32 3.93-3.79 6.58-3.83 13.4-3.99 20.8-0.0312 1.18-0.0312 1.18-0.063 2.39-0.0649 2.5-0.124 4.99-0.183 7.49-0.0432 1.7-0.0869 3.4-0.131 5.11-0.107 4.15-0.207 8.3-0.307 12.5h-33c0.0206-2.7 0.0412-5.4 0.0625-8.19-0.00726-2.67-0.0282-5.35-0.0503-8.02-0.00801-1.83-0.00228-3.66 0.0186-5.49 0.131-12.6-1.42-21.8-8-32.6-1.06-1.75-2.06-3.52-3.05-5.31-2.77-5.01-5.69-9.92-8.67-14.8-5.95-9.77-11.6-19.7-17.1-29.7-0.621-1.15-1.24-2.29-1.88-3.47-0.57-1.06-1.14-2.13-1.73-3.23-0.51-0.951-1.02-1.9-1.55-2.88-1.09-2.3-1.09-2.3-1.09-4.3 7.64-1.03 15.2-1.18 22.9-1.19z" style=""/>
  <path transform="translate(221 223)" d="m0 0c1.65-0.00326 1.65-0.00326 3.33-0.00659 1.18 0.00475 2.35 0.00951 3.56 0.0144 1.78 0.00616 1.78 0.00616 3.59 0.0125 26.3 0.167 26.3 0.167 33.7 6.05 2.76 5.42 2.65 11.7 0.797 17.4-0.954 1.99-2 3.79-3.23 5.62-0.577 0.908-1.15 1.81-1.75 2.75-4.97 4.97-11.4 7.2-18.4 7.57-0.783 0.0421-1.57 0.0841-2.37 0.127-0.825 0.0392-1.65 0.0783-2.5 0.119-0.849 0.0417-1.7 0.0835-2.57 0.126-9.23 0.429-18.3 0.72-27.4-0.689 0.509-8.59 2.08-16.8 4-25.1 0.273-1.23 0.547-2.46 0.828-3.73 2.32-10.3 2.32-10.3 8.46-10.3z" style=""/>
  <path transform="translate(234 172)" d="m0 0c0.759-0.00333 1.52-0.00666 2.3-0.0101 1.61-0.00508 3.22-0.00741 4.84-0.00725 2.45-0.00217 4.9-0.0203 7.35-0.0393 1.57-0.00294 3.14-0.00492 4.7-0.00586 1.09-0.0108 1.09-0.0108 2.2-0.0218 6.3 0.0278 13.1 0.917 18 5.31 2.75 4.79 2.01 10.7 1.11 15.9-2.89 6.22-8.61 11.5-15 14-4.69 0.973-9.25 1.13-14 1.1-0.746-0.00141-1.49-0.00283-2.26-0.00429-2.36-0.00556-4.73-0.0181-7.09-0.0309-1.61-0.00502-3.22-0.00958-4.83-0.0137-3.93-0.011-7.86-0.0282-11.8-0.0488 0.456-8.48 1.51-16.5 3.5-24.8 0.226-0.982 0.451-1.96 0.684-2.98 1.83-7.81 2.22-8.43 10.3-8.44z" style=""/>
</svg>